# xmcd CD database file generated by Grip 2.95
# 
# Track frame offsets:
#       150
#       11801
#       22742
#       34182
#       46391
#       58324
#       70478
#       83066
#       95392
#       108597
#       120961
#       134832
#       147484
#       158954
#       171236
#       183951
#       196685
#       208963
#       221350
#       233573
#       246704
#       259044
#       271720
#       287790
#       300768
#       314850
# 
# Disc length: 4323 seconds
# 
# Revision: 3
# Processed by: cddbd v1.4PL0 Copyright (c) Steve Scherf et al.
# Submitted via: Grip 2.95
# 
DISCID=8110e11a
DTITLE=Blind Boy Fuller and Sonny Terry - Harmonica and Guitar Blues 1937-1945
DYEAR=1900
DGENRE=
TTITLE0=Bye Bye Baby Blues
TTITLE1=Mistreater, You're Going To Be Sorry
TTITLE2=Mean And No Good Woman
TTITLE3=Pistol Slapper Blues
TTITLE4=Stop Jivin' Me Momma
TTITLE5=Big House Bound
TTITLE6=Train Whistle Blues
TTITLE7=New Love Blues
TTITLE8=I'm Stranger Here
TTITLE9=I Want Some Of Your Pie
TTITLE10=I Don't Care How Long
TTITLE11=Blues And Worried Man
TTITLE12=Harmonica And Washboard Breakdown
TTITLE13=Harmonica Blues
TTITLE14=Somebody's Been Talkin'
TTITLE15=Harmonica Stomp
TTITLE16=Twelve Gates To The City
TTITLE17=I Don't Want No Skinny Woman
TTITLE18=You Got To Have Your Dollar
TTITLE19=Blowing The Blues
TTITLE20=Bus Rider Blues
TTITLE21=Precious Lord
TTITLE22=Lonesome Train
TTITLE23=Shake Down Blues
TTITLE24=Sweet Woman
TTITLE25=Fox Chase
EXTD=
EXTT0=
EXTT1=
EXTT2=
EXTT3=
EXTT4=
EXTT5=
EXTT6=
EXTT7=
EXTT8=
EXTT9=
EXTT10=
EXTT11=
EXTT12=
EXTT13=
EXTT14=
EXTT15=
EXTT16=
EXTT17=
EXTT18=
EXTT19=
EXTT20=
EXTT21=
EXTT22=
EXTT23=
EXTT24=
EXTT25=
PLAYORDER=
